<svg xmlns="http://www.w3.org/2000/svg" viewBox="0 0 81 107"><defs><style>.cls-1{fill:none;stroke:#6d326d;stroke-miterlimit:10;stroke-width:4px;}.cls-2{fill:#6d326d;opacity:0.2;}</style></defs><title>Asset 8</title><g id="Layer_2" data-name="Layer 2"><g id="Layer_1-2" data-name="Layer 1"><g id="_Group_" data-name="&lt;Group&gt;"><path id="_Compound_Path_" data-name="&lt;Compound Path&gt;" class="cls-1" d="M76.36,3.65c-.18-.14-.36-.28-.56-.41a1.5,1.5,0,0,0-.32-.19,4.1,4.1,0,0,0-.4-.23A8,8,0,0,0,72.33,2h-.07c-.22,0-.45,0-.68,0H9.43q-.35,0-.69,0H8.67a8,8,0,0,0-2.88.86,2.71,2.71,0,0,0-.37.21,1.73,1.73,0,0,0-.28.19,4.54,4.54,0,0,0-.5.36A6.71,6.71,0,0,0,2,9V97.51c0,.13,0,.25,0,.37a7.65,7.65,0,0,0,7,7.11H72a7.63,7.63,0,0,0,7-7.48V9A6.68,6.68,0,0,0,76.36,3.65Zm-52,87A8.4,8.4,0,0,1,16,82.21V82a8.41,8.41,0,1,1,8.4,8.62Zm0-26.9A8.41,8.41,0,0,1,16,55.32c0-.11,0-.22,0-.32a8.41,8.41,0,1,1,8.4,8.72Zm0-26.89A8.42,8.42,0,0,1,16,28.42c0-.14,0-.28,0-.42a8.41,8.41,0,1,1,8.4,8.83Z"/><path id="_Compound_Path_2" data-name="&lt;Compound Path&gt;" class="cls-2" d="M76.36,3.65c-.18-.14-.36-.28-.56-.41a1.5,1.5,0,0,0-.32-.19,4.1,4.1,0,0,0-.4-.23A7,7,0,0,0,72.33,2h-.07a4.36,4.36,0,0,0-.51,0H9.25a4.36,4.36,0,0,0-.51,0H8.67a7.05,7.05,0,0,0-2.88.86,2.71,2.71,0,0,0-.37.21,1.73,1.73,0,0,0-.28.19,4.54,4.54,0,0,0-.5.36A7.27,7.27,0,0,0,2,9.25v88.5a.57.57,0,0,0,0,.13,7.23,7.23,0,0,0,7,7.11H72a7.25,7.25,0,0,0,7-7.24V9.25A7.27,7.27,0,0,0,76.36,3.65Zm-52,87A8.4,8.4,0,0,1,16,82.21V82a8.41,8.41,0,1,1,8.4,8.62Zm0-26.9A8.41,8.41,0,0,1,16,55.32c0-.11,0-.22,0-.32a8.41,8.41,0,1,1,8.4,8.72Zm0-26.89A8.42,8.42,0,0,1,16,28.42c0-.14,0-.28,0-.42a8.41,8.41,0,1,1,8.4,8.83Z"/><line id="_Path_" data-name="&lt;Path&gt;" class="cls-1" x1="2" y1="28" x2="16" y2="28"/><line id="_Path_2" data-name="&lt;Path&gt;" class="cls-1" x1="2" y1="55" x2="16" y2="55"/><line id="_Path_3" data-name="&lt;Path&gt;" class="cls-1" x1="2" y1="82" x2="16" y2="82"/></g></g></g></svg>